#!OML:ASF E:\id_vita\Project 1\Capture day 1\Session 1\Female.ASF
:FULLY-SPECIFIED
:DEGREES
1066
root 18.9517 12.7716 -1.12227 -180.026 87.7574 -235.007
lowerback -1.81132 -0.392322 0.00650146
upperback -2.03789 -0.506233 -0.0963186
thorax -1.0721 -0.246211 -0.106603
lowerneck 3.60674 -0.151561 -9.58362
upperneck -8.35485 0.59268 15.3173
head -3.0945 0.0575533 6.29279
rclavicle 5.06901e-015 4.44284e-014
rhumerus 21.6246 37.2367 -67.4157
rradius 38.3524
rwrist 11.9105
rhand -47.4046 -274.313
rfingers 7.12502
rthumb -20.0962 56.7067
lclavicle 5.06901e-015 4.44284e-014
lhumerus 34.564 -37.2562 51.9654
lradius 40.2328
lwrist -18.4161
lhand -54.9236 74.5508
lfingers 7.12502
lthumb -27.3071 1697.41
rfemur -93.9798 8.37506 25.8469
rtibia 95.8066
rfoot -27.4548 -16.3307
rtoes -21.473
lfemur -13.7495 -4.62321 -22.6807
ltibia 25.6624
lfoot 20.9667 -5.88365
ltoes -0.464769
1067
root 19.0334 12.7871 -1.1306 -175.746 87.7564 -230.708
lowerback -1.70292 -0.437687 0.333065
upperback -2.05604 -0.570061 -0.112641
thorax -1.15501 -0.282834 -0.305785
lowerneck 3.98059 -0.0276329 -9.15412
upperneck -8.78672 0.781285 14.914
head -3.30975 0.131703 6.0905
rclavicle -6.55989e-015 1.69961e-014
rhumerus 21.55 37.1911 -67.662
rradius 38.3669
rwrist 12.0969
rhand -47.5204 -274.248
rfingers 7.12502
rthumb -20.2075 56.7826
lclavicle -6.55989e-015 1.69961e-014
lhumerus 34.2695 -37.0722 52.0784
lradius 40.2564
lwrist -18.761
lhand -55.1615 73.546
lfingers 7.12502
lthumb -27.5346 1698.45
rfemur -93.4553 8.29043 25.9616
rtibia 95.6619
rfoot -28.0447 -15.3651
rtoes -21.7235
lfemur -13.8013 -4.70087 -22.4232
ltibia 25.7043
lfoot 22.1399 -6.24189
ltoes 0.0796363
1068
root 19.1109 12.8029 -1.1379 -173.165 87.6918 -228.221
lowerback -1.68254 -0.437418 0.607915
upperback -2.05501 -0.571881 -0.0990784
thorax -1.16808 -0.287435 -0.445716
lowerneck 3.32052 -0.221917 -9.02943
upperneck -8.3883 0.510679 14.8047
head -3.04564 0.0286936 6.03279
rclavicle 2.84262e-014 4.85035e-014
rhumerus 21.5933 37.1513 -67.5498
rradius 38.3111
rwrist 12.1843
rhand -47.5761 -273.932
rfingers 7.12502
rthumb -20.2611 57.1044
lclavicle 2.84262e-014 4.85035e-014
lhumerus 34.3434 -36.6666 52.2761
lradius 40.0733
lwrist -19.8867
lhand -54.6735 73.1893
lfingers 7.12502
lthumb -27.0678 1698.73
rfemur -93.1061 8.17558 25.9801
rtibia 95.4708
rfoot -27.687 -15.6869
rtoes -21.5143
lfemur -13.8677 -4.95668 -22.2255
ltibia 25.4887
lfoot 23.3578 -6.68778
ltoes -1.3836
1069
root 19.1878 12.822 -1.13871 -175.374 87.779 -230.507
lowerback -1.52265 -0.364184 0.589577
upperback -2.01406 -0.473684 -0.0692257
thorax -1.21403 -0.238223 -0.403349
lowerneck 2.8516 -0.219332 -9.24041
upperneck -8.19428 0.523067 14.9214
head -2.90969 0.0595365 6.10081
rclavicle 3.32964e-014 3.55825e-014
rhumerus 21.7492 36.9714 -67.2413
rradius 38.3638
rwrist 12.1186
rhand -47.5219 -273.815
rfingers 7.12502
rthumb -20.2089 57.2161
lclavicle 3.32964e-014 3.55825e-014
lhumerus 34.4281 -36.3186 52.6359
lradius 40.0804
lwrist -20.6254
lhand -54.3934 75.1181
lfingers 7.12502
lthumb -26.7998 1696.76
rfemur -92.7331 8.1626 25.8832
rtibia 95.2774
rfoot -27.9732 -15.1637
rtoes -22.7116
lfemur -13.9279 -5.12181 -22.2094
ltibia 25.3256
lfoot 24.6846 -6.9585
ltoes -2.7754
1070
root 19.26 12.8412 -1.13444 -171.977 87.954 -227.461
lowerback -1.69683 -0.304143 0.68992
upperback -2.08524 -0.392897 -0.0149558
thorax -1.18887 -0.198013 -0.404448
lowerneck 2.79825 -0.160173 -9.24129
upperneck -8.15691 0.590918 14.7864
head -2.89862 0.0999852 6.05479
rclavicle 2.68359e-015 1.18277e-014
rhumerus 21.7253 36.8324 -67.2252
rradius 38.5169
rwrist 12.4076
rhand -47.5005 -273.865
rfingers 7.12502
rthumb -20.1884 57.1645
lclavicle 2.68359e-015 1.18277e-014
lhumerus 34.169 -36.1348 52.9851
lradius 40.2281
lwrist -20.8174
lhand -54.7395 76.6164
lfingers 7.12502
lthumb -27.131 1695.31
rfemur -92.6284 8.38587 25.9464
rtibia 95.0515
rfoot -27.7072 -15.0367
rtoes -23.4892
lfemur -14.3423 -5.00709 -21.9201
ltibia 25.1845
lfoot 26.0757 -7.32548
ltoes -2.55902
1071
root 19.3385 12.8559 -1.13572 -170.885 88.12 -226.159
lowerback -1.40894 -0.271243 0.70432
upperback -1.98045 -0.348997 0.047009
thorax -1.24187 -0.176704 -0.34765
lowerneck 2.57091 -0.190378 -9.48137
upperneck -8.23081 0.578146 14.9806
head -2.879 0.103301 6.15924
rclavicle -1.16289e-014 -4.08502e-014
rhumerus 22.0028 37.1837 -66.7308
rradius 38.5487
rwrist 12.2563
rhand -47.6189 -273.869
rfingers 7.12502
rthumb -20.3022 57.1717
lclavicle -1.16289e-014 -4.08502e-014
lhumerus 34.1776 -36.3147 52.8566
lradius 40.3893
lwrist -20.0399
lhand -54.5546 74.075
lfingers 7.12502
lthumb -26.9541 1697.83
rfemur -91.9068 8.5449 25.9077
rtibia 94.832
rfoot -27.0537 -16.9076
rtoes -26.1663
lfemur -14.0189 -4.91133 -21.816
ltibia 24.9118
lfoot 27.1991 -7.70814
ltoes -2.76365
1072
root 19.4169 12.8719 -1.14368 -171.276 87.8583 -226.335
lowerback -1.08176 -0.375517 0.851967
upperback -1.85136 -0.489343 0.0653876
thorax -1.29566 -0.249998 -0.41012
lowerneck 2.34346 -0.156582 -9.59194
upperneck -8.31316 0.650486 15.0238
head -2.87311 0.150375 6.19045
rclavicle -9.0447e-015 -2.37548e-014
rhumerus 22.5281 37.5063 -66.1154
rradius 38.5
rwrist 11.7202
rhand -47.5749 -273.631
rfingers 7.12502
rthumb -20.2598 57.4052
lclavicle -9.0447e-015 -2.37548e-014
lhumerus 34.2497 -36.1987 52.8562
lradius 40.4221
lwrist -19.8049
lhand -54.9382 73.4462
lfingers 7.12502
lthumb -27.321 1698.51
rfemur -91.1958 8.23785 25.8271
rtibia 94.6617
rfoot -27.5203 -15.2154
rtoes -25.1692
lfemur -13.9221 -5.25364 -21.7217
ltibia 25.0911
lfoot 28.0532 -8.155
ltoes -3.43637
